<?xml version="1.0" encoding="UTF-8" standalone="no"?>
<!-- Created with Inkscape (http://www.inkscape.org/) -->

<svg
   xmlns:dc="http://purl.org/dc/elements/1.1/"
   xmlns:cc="http://creativecommons.org/ns#"
   xmlns:rdf="http://www.w3.org/1999/02/22-rdf-syntax-ns#"
   xmlns:svg="http://www.w3.org/2000/svg"
   xmlns="http://www.w3.org/2000/svg"
   xmlns:sodipodi="http://sodipodi.sourceforge.net/DTD/sodipodi-0.dtd"
   xmlns:inkscape="http://www.inkscape.org/namespaces/inkscape"
   width="210mm"
   height="210mm"
   viewBox="0 0 744.09453 744.09456"
   id="svg2"
   version="1.1"
   inkscape:version="0.91 r13725"
   sodipodi:docname="logo.svg">
  <defs
     id="defs4" />
  <sodipodi:namedview
     id="base"
     pagecolor="#ffffff"
     bordercolor="#666666"
     borderopacity="1.0"
     inkscape:pageopacity="0.0"
     inkscape:pageshadow="2"
     inkscape:zoom="0.49497475"
     inkscape:cx="317.95134"
     inkscape:cy="452.89346"
     inkscape:document-units="px"
     inkscape:current-layer="layer1"
     showgrid="false"
     inkscape:window-width="1366"
     inkscape:window-height="718"
     inkscape:window-x="0"
     inkscape:window-y="22"
     inkscape:window-maximized="1"
     units="mm"
     height="210mm" />
  <metadata
     id="metadata7">
    <rdf:RDF>
      <cc:Work
         rdf:about="">
        <dc:format>image/svg+xml</dc:format>
        <dc:type
           rdf:resource="http://purl.org/dc/dcmitype/StillImage" />
        <dc:title></dc:title>
      </cc:Work>
    </rdf:RDF>
  </metadata>
  <g
     inkscape:label="Camada 1"
     inkscape:groupmode="layer"
     id="layer1"
     transform="translate(0,-308.26745)">
    <g
       id="g4156"
       transform="matrix(1.2125515,0,0,1.2125515,965.83754,144.31419)">
      <path
         sodipodi:nodetypes="csssssssscc"
         inkscape:connector-curvature="0"
         id="path4147"
         d="m -783.98226,744.61364 c 0.62844,-4.03806 268.29805,5.89064 267.51764,1.15175 -9.91696,-60.21861 -125.33935,-170.88149 -136.78516,-175.96413 -45.85653,-20.36311 -139.58447,-145.8823 -36.14928,-312.71291 2.49396,-4.02251 8.40937,-10.37809 6.6472,-14.98706 -11.25265,-29.43134 8.17204,-54.22609 35.46941,-59.90926 13.55482,-2.82204 -59.36958,-19.35043 -66.53603,22.2764 -0.75903,4.40893 -6.48314,-7.67069 -9.99818,-4.20259 -49.00995,48.35539 -79.61471,155.49729 -59.21455,248.39797 36.16006,164.66999 70.41084,226.49574 -0.99074,295.67366 z"
         style="fill:#333333;fill-opacity:1;fill-rule:evenodd;stroke:none;stroke-width:1.60000002;stroke-linecap:butt;stroke-linejoin:miter;stroke-miterlimit:4;stroke-dasharray:none;stroke-opacity:1" />
      <path
         sodipodi:nodetypes="sssssssccsssssssssssssssssssssssssssssssssscs"
         inkscape:connector-curvature="0"
         id="path4149"
         d="m -688.57229,410.14947 c 1.5139,2.449 1.26787,3.90474 2.89781,2.68813 40.81385,-30.46419 38.68582,-23.6452 48.46121,-31.48372 0.53793,-0.43135 1.27251,0.53808 1.82152,1.01109 5.51177,4.74881 5.99195,19.92947 6.5124,19.53059 4.82692,-3.69938 10.74741,-16.82315 11.936,-27.08676 0.23746,-2.05051 3.74363,-4.92123 5.27055,-3.33224 4.76952,4.9634 9.31932,16.83083 7.68557,22.98349 13.16685,-10.03567 8.71601,-26.18956 17.9911,-26.78276 14.46991,-0.34306 34.92899,-1.20518 55.66703,-6.10142 12.87715,-3.04029 21.34248,-17.01004 27.22205,-31.10492 0.71423,-1.7122 2.74356,-0.90175 2.82424,-0.66487 5.05949,14.85579 -3.73346,76.56599 -23.03288,70.64359 -2.50084,-0.76743 -5.60301,-1.05827 -8.64306,-2.41146 -6.04196,-2.68941 -11.08095,-7.85781 -11.42389,-7.18056 -3.37889,6.67277 -0.14396,21.89104 -3.764,25.19783 -3.31117,3.02464 -11.49707,7.38295 -18.43861,11.13368 -9.66796,5.2239 -13.7885,-10.15594 -16.19791,-4.59534 -3.82844,8.83557 -10.40248,25.63572 -16.17974,28.10478 -14.3254,6.12232 -19.93348,-7.10208 -19.99923,-5.65201 -0.3463,7.63765 1.03075,26.26118 11.77191,33.89944 6.41628,4.56275 27.34751,8.26353 28.87697,8.11877 12.57766,-1.19041 42.72907,-11.04848 89.62259,-54.74828 10.58669,-9.86567 22.77552,-17.22034 31.75018,-23.04477 3.87911,-2.51749 9.02838,3.77133 13.35573,8.93336 7.34896,8.76647 14.98732,19.94802 22.37639,27.24624 14.85134,14.66874 31.24316,26.45418 26.66496,10.55465 -4.03127,-14.00014 -11.25581,-38.34885 -13.04907,-52.62458 -0.8803,-7.00784 9.07815,-7.76581 11.80922,-7.39006 43.84559,6.03242 151.21146,24.88008 121.84012,7.27555 -19.63469,-11.7686 -56.45709,-37.19438 -72.81173,-55.96815 -6.57266,-7.54487 -4.26219,-12.80781 -3.43516,-13.5046 23.40373,-19.71818 122.71041,-85.3076 53.58129,-63.05657 -7.69597,2.47715 -22.59202,7.67566 -42.16399,17.17335 -49.05917,23.80694 -29.97616,-2.07583 -27.51105,-5.84284 24.12112,-36.86018 48.61637,-67.22355 69.80021,-93.24544 13.44421,-16.51464 59.21089,-62.30393 -27.81842,-9.32126 -25.702,15.64715 -61.44709,46.75926 -107.45013,63.67822 -2.02669,0.74538 -4.28164,-0.80219 -6.43821,-1.47075 -15.58839,-4.83255 -54.95492,-10.40411 -95.76772,13.46345 -6.23699,3.64743 -30.22757,25.13047 -32.28595,26.86475 -47.00881,39.6072 -59.95922,30.09917 -60.49071,30.0947 -14.3121,-0.12046 -13.83671,-37.41515 -15.47151,-36.07763 -25.65694,20.99145 -36.76292,64.48032 -40.36046,96.15044 -0.89234,-1.11193 -17.85577,20.39281 -7.00562,37.94489 z"
         style="fill:#333333;fill-opacity:1;fill-rule:evenodd;stroke:none;stroke-width:1px;stroke-linecap:butt;stroke-linejoin:miter;stroke-opacity:1" />
      <path
         sodipodi:nodetypes="csssc"
         inkscape:connector-curvature="0"
         id="path4151"
         d="m -421.48616,220.75412 c -1.44145,0.93249 34.03656,-83.4765 32.1497,-81.97753 -12.65871,10.05643 -36.19895,33.50474 -82.13263,78.97964 -0.44188,0.43746 16.29809,-0.39927 28.02509,2.89468 10.87409,3.05439 22.45622,-0.42627 21.95785,0.10322"
         style="fill:#333333;fill-opacity:1;fill-rule:evenodd;stroke:none;stroke-width:1px;stroke-linecap:butt;stroke-linejoin:miter;stroke-opacity:1" />
      <path
         sodipodi:nodetypes="ssssssssssscs"
         inkscape:connector-curvature="0"
         id="path4177"
         d="m -324.1992,744.0827 c 26.11313,1.62148 62.20819,-133.00059 68.77384,-265.69627 1.12835,-22.80458 2.60812,-48.34163 3.23569,-51.66698 6.1353,-32.50952 5.66298,-98.37236 5.54206,-145.60828 -0.0676,-26.41813 -2.03507,-45.82129 -2.85905,-47.87157 -2.98138,-7.41847 17.50052,-9.09217 18.40146,-13.65276 1.16469,-5.89575 3.35382,-15.39931 -8.4922,-31.39706 -10.29085,-13.89753 28.804,-7.89634 33.41484,35.73129 0.52943,5.00946 8.82222,-2.84027 13.3482,0.75028 4.62905,3.67232 0.0986,107.49474 -3.01337,152.94861 -0.29035,4.24087 -14.3471,206.68532 -14.10921,257.54379 0.50789,108.58215 15.85304,108.48535 15.78076,108.22429 0,0 -164.92287,-1.47243 -130.02302,0.69466 z"
         style="fill:#333333;fill-opacity:1;fill-rule:evenodd;stroke:none;stroke-width:1px;stroke-linecap:butt;stroke-linejoin:miter;stroke-opacity:1" />
      <path
         sodipodi:nodetypes="ccccc"
         inkscape:connector-curvature="0"
         id="path4185"
         d="m -377.79705,416.97625 c 21.87132,8.52508 52.57708,10.8419 80.93476,14.73387 l 9.97897,39.81437 c -28.31231,-3.31167 -60.02681,-2.2157 -83.12032,-14.22537 -1.33317,-8.51808 -4.1631,-26.47581 -7.79341,-40.32287 z"
         style="fill:#333333;fill-opacity:1;fill-rule:evenodd;stroke:none;stroke-width:1px;stroke-linecap:butt;stroke-linejoin:miter;stroke-opacity:1" />
      <path
         sodipodi:nodetypes="ccccc"
         inkscape:connector-curvature="0"
         id="path4187"
         d="m -367.46032,479.79912 c 26.64208,12.95744 55.47039,11.70443 83.92858,12.85715 0.10993,16.7994 0.50726,31.38197 2.5,45.35715 -32.97562,-1.62124 -64.94128,-3.16027 -85.71429,-12.2908 1.16241,-16.1761 0.54013,-31.0037 -0.71429,-45.9235 z"
         style="fill:#333333;fill-opacity:1;fill-rule:evenodd;stroke:none;stroke-width:1px;stroke-linecap:butt;stroke-linejoin:miter;stroke-opacity:1" />
      <path
         sodipodi:nodetypes="ccccc"
         inkscape:connector-curvature="0"
         id="path4189"
         d="m -369.60317,545.87055 c 26.45978,12.87215 56.33407,14.3626 86.78571,13.92857 -2.5882,19.17221 -3.57325,35.53891 -8.57143,58.92857 -30.96159,-4.44218 -61.95003,-9.34091 -93.57143,-25 7.62918,-6.91591 10.84361,-29.72493 15.35715,-47.85714 z"
         style="fill:#333333;fill-opacity:1;fill-rule:evenodd;stroke:none;stroke-width:1px;stroke-linecap:butt;stroke-linejoin:miter;stroke-opacity:1" />
      <path
         sodipodi:nodetypes="ccccc"
         inkscape:connector-curvature="0"
         id="path4193"
         d="m -393.84556,612.23784 c -6.69615,10.68692 -14.01913,20.07242 -25.27792,28.18891 53.70586,41.25989 77.92792,45.66504 99.87745,47.22952 8.34244,-15.04587 16.11591,-30.94518 21.78571,-50 -32.76989,-1.68838 -63.12769,-8.1458 -96.38524,-25.41843 z"
         style="fill:#333333;fill-opacity:1;fill-rule:evenodd;stroke:none;stroke-width:1px;stroke-linecap:butt;stroke-linejoin:miter;stroke-opacity:1" />
      <path
         sodipodi:nodetypes="cccccc"
         inkscape:connector-curvature="0"
         id="path4195"
         d="m -332.26906,708.11801 c -45.62892,-7.34994 -79.01795,-26.06746 -103.10968,-55.62763 -9.90728,7.90192 -17.03639,10.81036 -26.1327,14.5562 14.34484,35.69727 33.93166,56.39628 54.76541,78.46683 l 46.07143,-0.35714 c 7.77264,-7.68244 17.98498,-22.07405 28.40554,-37.03826 z"
         style="fill:#333333;fill-opacity:1;fill-rule:evenodd;stroke:none;stroke-width:1px;stroke-linecap:butt;stroke-linejoin:miter;stroke-opacity:1" />
      <path
         sodipodi:nodetypes="ccccc"
         inkscape:connector-curvature="0"
         id="path4197"
         d="m -517.81746,679.44198 c 8.35349,-0.61642 15.47481,-0.84778 38.57143,-6.07143 2.21235,16.07576 11.52798,36.65026 42.14286,70.71429 l -52.14286,0 c -0.57353,-21.54762 -13.94261,-43.09524 -28.57143,-64.64286 z"
         style="fill:#333333;fill-opacity:1;fill-rule:evenodd;stroke:none;stroke-width:1px;stroke-linecap:butt;stroke-linejoin:miter;stroke-opacity:1" />
      <path
         sodipodi:nodetypes="ccccsc"
         inkscape:connector-curvature="0"
         id="path4199"
         d="m -449.24603,443.01341 c 19.95867,21.02427 38.63088,48.12553 62.14286,42.5 8.57908,157.54314 -102.06836,168.49871 -142.85714,175.35714 -22.31616,-30.25859 -51.22433,-60.7555 -86.07144,-88.21428 34.36198,1.72964 79.09504,-13.42006 117.65384,-41.59838 22.97579,-16.79043 43.24523,-43.20409 49.13188,-88.04448 z"
         style="fill:#333333;fill-opacity:1;fill-rule:evenodd;stroke:none;stroke-width:1px;stroke-linecap:butt;stroke-linejoin:miter;stroke-opacity:1" />
    </g>
  </g>
</svg>
